<?xml version="1.0" encoding="UTF-8"?>
<svg id="_レイヤー_1" xmlns="http://www.w3.org/2000/svg" version="1.1" viewBox="0 0 105.84 84.05" xmlns:c2pa="http://c2pa.org/manifest"><metadata><c2pa:manifest>AAAWgmp1bWIAAAAeanVtZGMycGEAEQAQgAAAqgA4m3EDYzJwYQAAABZcanVtYgAAAEdqdW1kYzJtYQARABCAAACqADibcQN1cm46YzJwYTpjNjhkOWVjZS1kM2E4LTQ1MWItOTZhZi0yNjU5ODYxMzU1OWUAAAADl2p1bWIAAAApanVtZGMyYXMAEQAQgAAAqgA4m3EDYzJwYS5hc3NlcnRpb25zAAAAALxqdW1iAAAARGp1bWRjYm9yABEAEIAAAKoAOJtxE2MycGEuaW5ncmVkaWVudC52MwAAAAAYYzJzaDYobiAm4V3Evq6zFRKe91EAAABwY2JvcqNpZGM6Zm9ybWF0bWltYWdlL3N2Zyt4bWxqaW5zdGFuY2VJRHgseG1wOmlpZDo4ODU5YmY4ZC1kZjg3LTRkMDktYWI5ZS1kZjc0ODI5N2VlNDJscmVsYXRpb25zaGlwaHBhcmVudE9mAAAB4mp1bWIAAABBanVtZGNib3IAEQAQgAAAqgA4m3ETYzJwYS5hY3Rpb25zLnYyAAAAABhjMnNoD4Rqmzf+0n+/0ESQo/Fp1QAAAZljYm9yomdhY3Rpb25zgqJmYWN0aW9ua2MycGEub3BlbmVkanBhcmFtZXRlcnOha2luZ3JlZGllbnRzgaJjdXJseC1zZWxmI2p1bWJmPWMycGEuYXNzZXJ0aW9ucy9jMnBhLmluZ3JlZGllbnQudjNkaGFzaFgg0++FIuWhF1O4BwetTSoiGxQgu7XV/ctiyT6NUsykJqukZmFjdGlvbngdY29tLmFudGhyb3BpYy5jbGF1ZGUucHJvdmlkZWRqcGFyYW1ldGVyc6F4H2NvbS5hbnRocm9waWMub3JpZ2luLWNvbmZpZGVuY2VndW5rbm93bmtkZXNjcmlwdGlvbnhmQ2xhdWRlIHByb3ZpZGVkIHRoaXMgZmlsZSBhdCB0aGUgcmVxdWVzdCBvZiBhIHVzZXIgYW5kIG1heSBoYXZlIGNyZWF0ZWQgb3IgbW9kaWZpZWQgdGhlIGZpbGUgY29udGVudHMubXNvZnR3YXJlQWdlbnShZG5hbWVmQ2xhdWRlcmFsbEFjdGlvbnNJbmNsdWRlZPUAAADIanVtYgAAAEBqdW1kY2JvcgARABCAAACqADibcRNjMnBhLmhhc2guZGF0YQAAAAAYYzJzaDZ+vJzRxqWhrWsrbGaMMVEAAACAY2JvcqVjYWxnZnNoYTI1NmNwYWRNAAAAAAAAAAAAAAAAAGRoYXNoWCCZ0bgaVyEKCJJYafeI1YBnUlMbtdI3yskHf/u13h/QjWRuYW1lbmp1bWJmIG1hbmlmZXN0amV4Y2x1c2lvbnOBomVzdGFydBjMZmxlbmd0aBkeBAAAAj5qdW1iAAAAJ2p1bWRjMmNsABEAEIAAAKoAOJtxA2MycGEuY2xhaW0udjIAAAACD2Nib3KlY2FsZ2ZzaGEyNTZpc2lnbmF0dXJleE1zZWxmI2p1bWJmPS9jMnBhL3VybjpjMnBhOmM2OGQ5ZWNlLWQzYTgtNDUxYi05NmFmLTI2NTk4NjEzNTU5ZS9jMnBhLnNpZ25hdHVyZWppbnN0YW5jZUlEeCx4bXA6aWlkOmFlMmE3MmFmLTk0ODMtNGEzNi1iMjIxLWYyNzdkNzMxYzZjMnJjcmVhdGVkX2Fzc2VydGlvbnODomN1cmx4LXNlbGYjanVtYmY9YzJwYS5hc3NlcnRpb25zL2MycGEuaW5ncmVkaWVudC52M2RoYXNoWCDT74Ui5aEXU7gHB61NKiIbFCC7tdX9y2LJPo1SzKQmq6JjdXJseCpzZWxmI2p1bWJmPWMycGEuYXNzZXJ0aW9ucy9jMnBhLmFjdGlvbnMudjJkaGFzaFggXJ/5u9iizCo5Nj1vWXnnDSAa0xxq6H0FiuAllafBNCaiY3VybHgpc2VsZiNqdW1iZj1jMnBhLmFzc2VydGlvbnMvYzJwYS5oYXNoLmRhdGFkaGFzaFggC0XhgdQE3L8VLZH+odoVe97KKeIR+IqkqdG+iMt1r4d0Y2xhaW1fZ2VuZXJhdG9yX2luZm+jZG5hbWVvQW50aHJvcGljIEZpbGVzZ3ZlcnNpb25lMS4wLjBrc3BlY1ZlcnNpb25lMi40LjAAABA4anVtYgAAAChqdW1kYzJjcwARABCAAACqADibcQNjMnBhLnNpZ25hdHVyZQAAABAIY2JvctKEWQISogEmGCFZAgowggIGMIIBjaADAgECAhRA5aAK7sI50L64g/oGQgU9Z1UTADAKBggqhkjOPQQDAzBJMRcwFQYDVQQKEw5BbnRocm9waWMsIFBCQzEuMCwGA1UEAxMlQW50aHJvcGljIENvbnRlbnQgQ3JlZGVudGlhbHMgUm9vdCBDQTAeFw0yNjA4MDcxODQzNTZaFw0yODA4MDYxOTQzNTZaMEQxFzAVBgNVBAoTDkFudGhyb3BpYywgUEJDMSkwJwYDVQQDEyBBbnRocm9waWMgQ2xhdWRlIENvbnRlbnQgU2lnbmluZzBZMBMGByqGSM49AgEGCCqGSM49AwEHA0IABJh6CmvLUBgFFNU0vUKlOVtE6djd17L5SuwX0LemFisBM3dkd/3cyjxFA3Qo5S46fX0/ihY0VZ7mfb9KF703t5OjWDBWMA4GA1UdDwEB/wQEAwIHgDAVBgNVHSUEDjAMBgorBgEEAYPoXgIBMAwGA1UdEwEB/wQCMAAwHwYDVR0jBBgwFoAUzlHiBIFOZFsj+OPEz5o+nMHXXMIwCgYIKoZIzj0EAwMDZwAwZAIwMXMdFJ4BetLLVY7ORuE9noqbbAZOZn/aArXyTwFAZfKrPzxF2vPoJNf1+UCdg1XGAjBwX1zd9WGqYkqmL5SFqw1QySjr1zJfpJM9+1rdDwSPLMOPOjKuiXjoU/pUUeG9RwmhY3BhZFkNngAAAAAAAAAAAAAAAAAAAAAAAAAAAAAAAAAAAAAAAAAAAAAAAAAAAAAAAAAAAAAAAAAAAAAAAAAAAAAAAAAAAAAAAAAAAAAAAAAAAAAAAAAAAAAAAAAAAAAAAAAAAAAAAAAAAAAAAAAAAAAAAAAAAAAAAAAAAAAAAAAAAAAAAAAAAAAAAAAAAAAAAAAAAAAAAAAAAAAAAAAAAAAAAAAAAAAAAAAAAAAAAAAAAAAAAAAAAAAAAAAAAAAAAAAAAAAAAAAAAAAAAAAAAAAAAAAAAAAAAAAAAAAAAAAAAAAAAAAAAAAAAAAAAAAAAAAAAAAAAAAAAAAAAAAAAAAAAAAAAAAAAAAAAAAAAAAAAAAAAAAAAAAAAAAAAAAAAAAAAAAAAAAAAAAAAAAAAAAAAAAAAAAAAAAAAAAAAAAAAAAAAAAAAAAAAAAAAAAAAAAAAAAAAAAAAAAAAAAAAAAAAAAAAAAAAAAAAAAAAAAAAAAAAAAAAAAAAAAAAAAAAAAAAAAAAAAAAAAAAAAAAAAAAAAAAAAAAAAAAAAAAAAAAAAAAAAAAAAAAAAAAAAAAAAAAAAAAAAAAAAAAAAAAAAAAAAAAAAAAAAAAAAAAAAAAAAAAAAAAAAAAAAAAAAAAAAAAAAAAAAAAAAAAAAAAAAAAAAAAAAAAAAAAAAAAAAAAAAAAAAAAAAAAAAAAAAAAAAAAAAAAAAAAAAAAAAAAAAAAAAAAAAAAAAAAAAAAAAAAAAAAAAAAAAAAAAAAAAAAAAAAAAAAAAAAAAAAAAAAAAAAAAAAAAAAAAAAAAAAAAAAAAAAAAAAAAAAAAAAAAAAAAAAAAAAAAAAAAAAAAAAAAAAAAAAAAAAAAAAAAAAAAAAAAAAAAAAAAAAAAAAAAAAAAAAAAAAAAAAAAAAAAAAAAAAAAAAAAAAAAAAAAAAAAAAAAAAAAAAAAAAAAAAAAAAAAAAAAAAAAAAAAAAAAAAAAAAAAAAAAAAAAAAAAAAAAAAAAAAAAAAAAAAAAAAAAAAAAAAAAAAAAAAAAAAAAAAAAAAAAAAAAAAAAAAAAAAAAAAAAAAAAAAAAAAAAAAAAAAAAAAAAAAAAAAAAAAAAAAAAAAAAAAAAAAAAAAAAAAAAAAAAAAAAAAAAAAAAAAAAAAAAAAAAAAAAAAAAAAAAAAAAAAAAAAAAAAAAAAAAAAAAAAAAAAAAAAAAAAAAAAAAAAAAAAAAAAAAAAAAAAAAAAAAAAAAAAAAAAAAAAAAAAAAAAAAAAAAAAAAAAAAAAAAAAAAAAAAAAAAAAAAAAAAAAAAAAAAAAAAAAAAAAAAAAAAAAAAAAAAAAAAAAAAAAAAAAAAAAAAAAAAAAAAAAAAAAAAAAAAAAAAAAAAAAAAAAAAAAAAAAAAAAAAAAAAAAAAAAAAAAAAAAAAAAAAAAAAAAAAAAAAAAAAAAAAAAAAAAAAAAAAAAAAAAAAAAAAAAAAAAAAAAAAAAAAAAAAAAAAAAAAAAAAAAAAAAAAAAAAAAAAAAAAAAAAAAAAAAAAAAAAAAAAAAAAAAAAAAAAAAAAAAAAAAAAAAAAAAAAAAAAAAAAAAAAAAAAAAAAAAAAAAAAAAAAAAAAAAAAAAAAAAAAAAAAAAAAAAAAAAAAAAAAAAAAAAAAAAAAAAAAAAAAAAAAAAAAAAAAAAAAAAAAAAAAAAAAAAAAAAAAAAAAAAAAAAAAAAAAAAAAAAAAAAAAAAAAAAAAAAAAAAAAAAAAAAAAAAAAAAAAAAAAAAAAAAAAAAAAAAAAAAAAAAAAAAAAAAAAAAAAAAAAAAAAAAAAAAAAAAAAAAAAAAAAAAAAAAAAAAAAAAAAAAAAAAAAAAAAAAAAAAAAAAAAAAAAAAAAAAAAAAAAAAAAAAAAAAAAAAAAAAAAAAAAAAAAAAAAAAAAAAAAAAAAAAAAAAAAAAAAAAAAAAAAAAAAAAAAAAAAAAAAAAAAAAAAAAAAAAAAAAAAAAAAAAAAAAAAAAAAAAAAAAAAAAAAAAAAAAAAAAAAAAAAAAAAAAAAAAAAAAAAAAAAAAAAAAAAAAAAAAAAAAAAAAAAAAAAAAAAAAAAAAAAAAAAAAAAAAAAAAAAAAAAAAAAAAAAAAAAAAAAAAAAAAAAAAAAAAAAAAAAAAAAAAAAAAAAAAAAAAAAAAAAAAAAAAAAAAAAAAAAAAAAAAAAAAAAAAAAAAAAAAAAAAAAAAAAAAAAAAAAAAAAAAAAAAAAAAAAAAAAAAAAAAAAAAAAAAAAAAAAAAAAAAAAAAAAAAAAAAAAAAAAAAAAAAAAAAAAAAAAAAAAAAAAAAAAAAAAAAAAAAAAAAAAAAAAAAAAAAAAAAAAAAAAAAAAAAAAAAAAAAAAAAAAAAAAAAAAAAAAAAAAAAAAAAAAAAAAAAAAAAAAAAAAAAAAAAAAAAAAAAAAAAAAAAAAAAAAAAAAAAAAAAAAAAAAAAAAAAAAAAAAAAAAAAAAAAAAAAAAAAAAAAAAAAAAAAAAAAAAAAAAAAAAAAAAAAAAAAAAAAAAAAAAAAAAAAAAAAAAAAAAAAAAAAAAAAAAAAAAAAAAAAAAAAAAAAAAAAAAAAAAAAAAAAAAAAAAAAAAAAAAAAAAAAAAAAAAAAAAAAAAAAAAAAAAAAAAAAAAAAAAAAAAAAAAAAAAAAAAAAAAAAAAAAAAAAAAAAAAAAAAAAAAAAAAAAAAAAAAAAAAAAAAAAAAAAAAAAAAAAAAAAAAAAAAAAAAAAAAAAAAAAAAAAAAAAAAAAAAAAAAAAAAAAAAAAAAAAAAAAAAAAAAAAAAAAAAAAAAAAAAAAAAAAAAAAAAAAAAAAAAAAAAAAAAAAAAAAAAAAAAAAAAAAAAAAAAAAAAAAAAAAAAAAAAAAAAAAAAAAAAAAAAAAAAAAAAAAAAAAAAAAAAAAAAAAAAAAAAAAAAAAAAAAAAAAAAAAAAAAAAAAAAAAAAAAAAAAAAAAAAAAAAAAAAAAAAAAAAAAAAAAAAAAAAAAAAAAAAAAAAAAAAAAAAAAAAAAAAAAAAAAAAAAAAAAAAAAAAAAAAAAAAAAAAAAAAAAAAAAAAAAAAAAAAAAAAAAAAAAAAAAAAAAAAAAAAAAAAAAAAAAAAAAAAAAAAAAAAAAAAAAAAAAAAAAAAAAAAAAAAAAAAAAAAAAAAAAAAAAAAAAAAAAAAAAAAAAAAAAAAAAAAAAAAAAAAAAAAAAAAAAAAAAAAAAAAAAAAAAAAAAAAAAAAAAAAAAAAAAAAAAAAAAAAAAAAAAAAAAAAAAAAAAAAAAAAAAAAAAAAAAAAAAAAAAAAAAAAAAAAAAAAAAAAAAAAAAAAAAAAAAAAAAAAAAAAAAAAAAAAAAAAAAAAAAAAAAAAAAAAAAAAAAAAAAAAAAAAAAAAAAAAAAAAAAAAAAAAAAAAAAAAAAAAAAAAAAAAAAAAAAAAAAAAAAAAAAAAAAAAAAAAAAAAAAAAAAAAAAAAAAAAAAAAAAAAAAAAAAAAAAAAAAAAAAAAAAAAAAAAAAAAAAAAAAAAAAAAAAAAAAAAAAAAAAAAAAAAAAAAAAAAAAAAAAAAAAAAAAAAAAAAAAAAAAAAAAAAAAAAAAAAAAAAAAAAAAAAAAAAAAAAAAAAAAAAAAAAAAAAAAAAAAAAAAAAAAAAAAAAAAAAAAAAAAAAAAAAAAAAAAAAAAAAAAAAAAAAAAAAAAAAAAAAAAAAAAAAAAAAAAAAAAAAAAAAAAAAAAAAAAAAAAAAAAAAAAAAAAAAAAAAAAAAAAAAAAAAAAAAAAAAAAAAAAAAAAAAAAAAAAAAAAAAAAAAAAAAAAAAAAAAAAAAAAAAAAAAAAAAAAAAAAAAAAAAAAAAAAAAAAAAAAAAAAAAAAAAAAAAAAAAAAAAAAAAAAAAAAAAAAAAAAAAAAAAAAAAAAAAAAAAAAAAAAAAAAAAAAAAAAAAAAAAAAAAAAAAAAAAAAAAAAAAAAAAAAAAAAAAAAAAAAAAAAAAAAAAAAAAAAAAAAAAAAAAAAAAAAAAAAAAAAAAAAAAAAAAAAAAAAAAAAAAAAAAAAAAAAAAAAAAAAAAAAAAAAAAAAAAAAAAAAAAAAAAAAAAAAAAAAAAAAAAAAAAAAAAAAAAAAAAAAAAAAAAAAAAAAAAAAAAAAAAAAAAAAAAAAAAAAAAAAAAAAAAAAAAAAAAAAAAAAAAAAAAAAAAAAAAAAAAAAAAAAAAAAAAAAAAAAAAAAAAAAAAAAAAAAAAAAAAAAAAAAAAAAAAAAAAAAAAAAAAAAAAAAAAAAAAAAAAAAAAAAAAAAAAAAAAAAAAAAAAAAAAAAAAAAAAAAAAAAAAAAAAAAAAAAAAAAAAAAAAAAAAAAAAAAAAAAAAAAAAAAAAAAAAAAAAAAAAAAAAAAAAAAAAAAAAAAAAAAAAAAAAAAAAAAAAAAAAAAAAAAAAAAAAAAAAAAAAAAAAAAAAAAAAAAAAAAAAAAAAAAAAAAAAAAAAAAAAAAAAAAAAAAAAAAAAAAAAAAAAAAAAAAAAAAAAAAAAAAAAAAAAAAAAAAAAAAAAAAAAAAAAAAAAAAAAAAAAAAAAAAAAAAAAAAAAAAAAAAAAAAAAAAAAAAAAAAAAAAAAAAAAAAAAAAAAAAAAAAAAAAAAAAAAAAAAAAAAAAAAAAAAAAAAAAAAAAAAAAAAAAAAAAPZYQICXvxNV+m/kUYqt76vR/xUlU5pVz6dnFnOzJYCE/eH3mItyX71kiE4P6JT/O4ysCzxVv70U3OjTvdRv7tfaPrI=</c2pa:manifest></metadata>
  <!-- Generator: Adobe Illustrator 30.6.0, SVG Export Plug-In . SVG Version: 2.1.4 Build 109)  -->
  <defs>
    <style>
      .st0 {
        fill: #4f93c7;
      }

      .st1 {
        fill: #98a2aa;
      }

      .st2, .st3 {
        fill: #4e93c6;
      }

      .st4 {
        fill: #fff;
      }

      .st5 {
        fill: #cdd3d7;
      }

      .st6 {
        fill: #2e6495;
      }

      .st7 {
        fill: #4f92c7;
      }

      .st8 {
        fill: #5191c6;
      }

      .st9 {
        fill: #ccd2d7;
      }

      .st3 {
        font-family: DIN2014-Bold, 'DIN 2014';
        font-size: 32px;
        font-weight: 700;
      }

      .st10 {
        fill: #ccd3d6;
      }

      .st11 {
        fill: #96a0a8;
      }
    </style>
  </defs>
  <g id="_生成オブジェクト">
    <path class="st4" d="M54.77,11.37c-.72.69-1.3,1.46-1.83,2.46-.67-1.07-1.23-1.89-2.04-2.61-.94-.83-2.01-1.37-3.28-1.79L19.61.24c-2.08-.68-4.42.4-5.83,1.69-1.57,1.42-2.26,3.5-2.19,5.69-1.59.75-2.96,1.75-3.82,3.34C3.34,10.35.02,13.65.02,17.95l.02,54.93c0,3.45,2.34,6.86,6.04,6.87l38.94.09c1.41,2.23,3.57,3.57,6.06,4.04,3.82.72,7.65-.81,9.75-4.04l38.7-.06c3.78,0,6.31-3.3,6.31-6.9l-.09-55.75c0-3.96-3.89-6.73-7.59-6.13-1.03-1.52-2.22-2.62-3.93-3.37.07-2.13-.55-4.21-2.06-5.62s-3.79-2.46-5.95-1.75l-28.63,9.39c-1.15.38-2.05,1.01-2.8,1.73h-.02Z"/>
    <path class="st6" d="M50.9,11.21l-2.55.84L20.07,2.66c-1.45-.48-2.86-.49-4.15.4-.92.63-2.04,1.9-2.04,3.37l-.07,52.06c0,3.17,1.5,6.02,4.61,7.04l30.34,9.97c1.16.38,2.19.73,3.07,1.38l1.06.78,1.07-.77c.79-.57,1.7-.93,2.75-1.28l29.93-9.77c2.71-.88,5.29-3.06,5.29-6.13l-.04-53.48c0-2.57-3.09-4.51-5.3-3.78l-28.84,9.44-2.22-.57-.76.03c.75-.72,1.65-1.35,2.8-1.73L86.2.23c2.16-.71,4.51.4,5.95,1.75s2.13,3.49,2.06,5.62c1.7.75,2.9,1.85,3.93,3.37,3.7-.6,7.59,2.17,7.59,6.13l.09,55.75c0,3.6-2.53,6.9-6.31,6.9l-38.7.06c-2.09,3.24-5.92,4.76-9.75,4.04-2.49-.47-4.65-1.8-6.06-4.04l-38.94-.09c-3.7,0-6.04-3.43-6.04-6.87l-.02-54.93c0-4.3,3.32-7.6,7.75-6.99.86-1.59,2.23-2.59,3.82-3.34-.07-2.19.62-4.26,2.19-5.69,1.41-1.28,3.75-2.37,5.83-1.69l28.01,9.19c1.27.42,2.34.96,3.28,1.79l.02.02ZM42.95,76l-24.13-7.96c-1.76-.58-3.44-1.2-4.69-2.64s-2.49-3.36-2.5-5.45l-.06-49.76c-1.72.98-2.69,2.79-2.69,4.86l-.04,50.09c0,3.59,2.31,6.35,5.82,6.85l28.27,4.01h.02ZM90.68,72.1c3.83-.54,6.31-3.16,6.31-6.95l-.07-50.8c0-1.78-1.34-3.28-2.66-4.15l-.16,49.96c0,3.1-2.51,6.26-5.27,7.17l-26.2,8.7,28.06-3.93h0ZM36.41,77.33l-22.62-3.29c-4.46-.65-7.2-4.67-7.2-9.09l.03-50.12c0-.63.27-1.04.1-1.69-2.01-.07-4.45,1.6-4.45,3.96v56.37c0,2.57,2.29,4.15,4.61,4.15h29.53c.46,0,.83.21,1.3-.02-.39-.29-.81-.19-1.31-.26h.01ZM69.52,77.62l29.99-.05c2.26,0,4.05-2.02,4.05-4.3l.04-55.32c0-2.69-1.73-4.84-4.45-4.83l.06,52.02c0,4.74-3.12,8.38-7.81,9.05l-21.83,3.1c-.51.07-.9-.09-1.29.33.44.17.68,0,1.24,0ZM57.96,79.84h-10.11c2.88,2.59,7.24,2.61,10.11,0Z"/>
    <path class="st1" d="M54.77,11.37l.76-.03,2.22.57c-2.3,1.37-3.79,3.78-3.71,6.66v39.09c0,.79-.39,1.31-1.04,1.34-.57.03-1.24-.34-1.24-1.13V18.57c.09-2.77-1.21-5.07-3.42-6.51l2.55-.84c.81.72,1.37,1.54,2.04,2.61.53-1,1.11-1.77,1.83-2.46h.01Z"/>
    <path class="st4" d="M48.34,12.05c2.2,1.44,3.5,3.74,3.43,6.51v39.3c0,.79.66,1.16,1.23,1.13.66-.04,1.04-.55,1.04-1.34V18.56c-.08-2.88,1.42-5.29,3.71-6.66l28.84-9.44c2.22-.73,5.3,1.21,5.3,3.78l.04,53.48c0,3.06-2.58,5.24-5.29,6.13l-29.93,9.77c-1.05.34-1.96.71-2.75,1.28l.08-12.95c0-.75-.38-1.18-1.05-1.27-.47-.06-1.2.36-1.2,1.06l.04,13.14c-.87-.64-1.9-.99-3.07-1.38l-30.34-9.97c-3.11-1.02-4.62-3.87-4.61-7.04l.07-52.06c0-1.47,1.12-2.74,2.04-3.37,1.29-.88,2.7-.88,4.15-.4l28.28,9.39h-.01ZM47.48,64.42l-.08-42.3c0-3.34-2.4-6.08-5.38-7.05l-19.29-6.32c-1.16-.38-2.24-.1-3.13.55-.81.59-1.37,1.6-1.37,2.83l.07,43.26c0,3,2.31,5.75,5.04,6.65l19.12,6.33c1.39.46,2.62.4,3.68-.47s1.35-1.86,1.34-3.48ZM63.16,68.43l18.85-6.23c2.77-.92,5.49-3.4,5.5-6.62l.09-43.75c0-1.14-.83-2.14-1.51-2.63-1-.72-2.06-.77-3.2-.4l-14.17,4.68-5.54,1.86c-2.93,1.19-4.81,4.12-4.81,7.39v42.97c.52,2.25,2.57,3.53,4.79,2.73Z"/>
    <path class="st7" d="M36.41,77.33c.5.07.92-.03,1.31.26-.47.23-.84.01-1.3.01H6.89c-2.32,0-4.61-1.57-4.61-4.14V17.09c0-2.36,2.43-4.03,4.44-3.96.17.66-.09,1.06-.1,1.69l-.03,50.12c0,4.41,2.74,8.44,7.2,9.09l22.62,3.29h0Z"/>
    <path class="st0" d="M69.52,77.62c-.55,0-.8.18-1.24,0,.39-.42.78-.25,1.29-.33l21.83-3.1c4.68-.67,7.81-4.31,7.81-9.05l-.06-52.02c2.72-.02,4.45,2.13,4.45,4.83l-.04,55.32c0,2.28-1.78,4.3-4.05,4.3l-29.99.05Z"/>
    <path class="st5" d="M90.68,72.1l-28.06,3.93,26.2-8.7c2.76-.92,5.26-4.07,5.27-7.17l.16-49.96c1.33.86,2.66,2.37,2.66,4.15l.07,50.8c0,3.8-2.47,6.41-6.31,6.95h0Z"/>
    <path class="st9" d="M42.95,76l-28.27-4.01c-3.51-.5-5.82-3.26-5.82-6.85l.04-50.09c0-2.07.96-3.88,2.69-4.86l.06,49.76c0,2.09,1.24,4.02,2.5,5.45s2.93,2.06,4.69,2.64l24.13,7.96h-.02Z"/>
    <path class="st11" d="M53.97,76.89l-1.07.77-1.06-.78-.04-13.14c0-.7.73-1.12,1.2-1.06.67.09,1.05.52,1.05,1.27l-.08,12.95h0Z"/>
    <path class="st8" d="M57.96,79.84c-2.87,2.61-7.23,2.59-10.11,0h10.11Z"/>
    <path class="st2" d="M47.48,64.42c0,1.62-.29,2.62-1.34,3.48s-2.29.93-3.68.47l-19.12-6.33c-2.73-.9-5.03-3.66-5.04-6.65l-.07-43.26c0-1.23.55-2.24,1.37-2.83.89-.65,1.97-.93,3.13-.55l19.29,6.32c2.98.98,5.37,3.72,5.38,7.05,0,0,.08,42.3.08,42.3Z"/>
    <path class="st10" d="M63.16,68.43c-2.22.8-4.27-.48-4.79-2.73V22.73c0-3.26,1.88-6.2,4.81-7.39l5.54-1.86,14.17-4.68c1.14-.38,2.2-.32,3.2.4.68.49,1.51,1.49,1.51,2.63l-.09,43.75c0,3.22-2.73,5.7-5.5,6.62l-18.85,6.23Z"/>
  </g>
  <text class="st3" transform="translate(64.78 48.37)"><tspan x="0" y="0">4</tspan></text>
</svg>